<?xml version="1.0" encoding="iso-8859-1"?>
<!-- Generator: Adobe Illustrator 19.0.0, SVG Export Plug-In . SVG Version: 6.00 Build 0)  -->
<svg version="1.1" id="Layer_1" xmlns="http://www.w3.org/2000/svg" xmlns:xlink="http://www.w3.org/1999/xlink" x="0px" y="0px"
	 viewBox="0 0 512 512" style="enable-background:new 0 0 512 512;" xml:space="preserve">
<path style="fill:#F7B239;" d="M407.556,210.66c0,41.049-16.328,78.275-42.821,105.564c-23.606,24.303-37.213,56.605-37.213,90.489
	l-93.033,32.53l-49.998-32.53c0-33.948-13.708-66.225-37.327-90.603c-25.999-26.821-42.175-63.225-42.707-103.4
	c-1.101-83.249,66.123-152.41,149.36-153.587C338.521,57.934,407.556,126.234,407.556,210.66z"/>
<path style="fill:#CCCCCC;" d="M278.638,170.486l20.002,29.829h-0.014c-13.599,5.882-28.109,52.054-42.618,52.054
	c-14.525,0-29.034-46.172-42.632-52.054l20.002-29.829c6.474,4.364,14.25-9.886,22.632-9.886
	C264.388,160.602,272.178,174.837,278.638,170.486z"/>
<g>
	<path style="fill:#2BA5F7;" d="M298.638,200.315v220.851h-42.632V209.13c2.414,0,4.826-0.086,7.226-0.246
		c12.082-0.809,24.048-3.671,35.392-8.57h0.014V200.315z"/>
	<path style="fill:#2BA5F7;" d="M256.006,209.13v212.036h-42.632V200.315c11.345,4.9,23.325,7.76,35.407,8.57
		C251.194,209.044,253.593,209.13,256.006,209.13z"/>
</g>
<path style="fill:#2197D8;" d="M263.233,208.885v212.282h-14.451V208.885c2.414,0.16,4.812,0.246,7.226,0.246
	C258.421,209.13,260.833,209.044,263.233,208.885z"/>
<path style="fill:#F95428;" d="M256.006,136.727l22.632,33.759c-6.46,4.35-14.25,6.893-22.632,6.893
	c-8.382,0-16.157-2.529-22.632-6.893L256.006,136.727z"/>
<g>
	<path style="fill:#FFFFFF;" d="M375.912,220.154c-5.243,0-9.493-4.25-9.493-9.493c0-49.034-32.943-92.698-80.111-106.183
		c-5.04-1.442-7.959-6.696-6.517-11.737c1.442-5.042,6.697-7.958,11.736-6.519c55.274,15.803,93.879,66.974,93.879,124.438
		C385.405,215.903,381.155,220.154,375.912,220.154z"/>
	<path style="fill:#FFFFFF;" d="M262.596,100.425c-0.167,0-0.335-0.004-0.504-0.013c-2.148-0.113-4.257-0.162-6.271-0.165
		c-0.452,0-0.904,0-1.356,0.01c-5.228,0.118-9.583-4.043-9.697-9.284c-0.114-5.242,4.043-9.583,9.284-9.697
		c2.938-0.063,5.934,0.013,9.031,0.176c5.236,0.275,9.258,4.742,8.984,9.977C271.803,96.495,267.612,100.425,262.596,100.425z"/>
</g>
<g>
	<path style="fill:#F7B239;" d="M461.743,219.673h-16.569c-3.845,0-6.962-3.116-6.962-6.962c0-3.845,3.116-6.962,6.962-6.962h16.569
		c3.845,0,6.962,3.116,6.962,6.962C468.705,216.556,465.588,219.673,461.743,219.673z"/>
	<path style="fill:#F7B239;" d="M66.813,219.673H50.257c-3.845,0-6.962-3.116-6.962-6.962c0-3.845,3.116-6.962,6.962-6.962h16.556
		c3.845,0,6.962,3.116,6.962,6.962C73.775,216.556,70.657,219.673,66.813,219.673z"/>
	<path style="fill:#F7B239;" d="M419.827,125.084c-2.409,0-4.75-1.251-6.039-3.487c-1.92-3.331-0.775-7.588,2.557-9.507
		l14.366-8.278c3.334-1.921,7.588-0.775,9.508,2.557c1.92,3.331,0.775,7.588-2.557,9.507l-14.366,8.278
		C422.202,124.784,421.006,125.084,419.827,125.084z"/>
	<path style="fill:#F7B239;" d="M77.832,322.542c-2.406,0-4.747-1.249-6.036-3.482c-1.923-3.33-0.781-7.587,2.549-9.51l14.341-8.278
		c3.33-1.921,7.587-0.781,9.51,2.549s0.781,7.587-2.549,9.51l-14.341,8.278C80.21,322.241,79.013,322.542,77.832,322.542z"/>
	<path style="fill:#F7B239;" d="M350.578,55.847c-1.181,0-2.378-0.301-3.476-0.934c-3.329-1.923-4.469-6.181-2.547-9.51
		l8.291-14.354c1.925-3.329,6.181-4.469,9.511-2.547c3.329,1.923,4.469,6.181,2.547,9.51l-8.291,14.354
		C355.323,54.599,352.983,55.847,350.578,55.847z"/>
	<path style="fill:#F7B239;" d="M256.006,30.505c-3.845,0-6.962-3.116-6.962-6.962V6.962c0-3.845,3.116-6.962,6.962-6.962
		s6.962,3.116,6.962,6.962v16.581C262.968,27.389,259.85,30.505,256.006,30.505z"/>
	<path style="fill:#F7B239;" d="M161.422,55.847c-2.406,0-4.745-1.248-6.035-3.481l-8.291-14.354
		c-1.923-3.329-0.784-7.587,2.547-9.51s7.587-0.782,9.511,2.547l8.291,14.354c1.923,3.329,0.784,7.587-2.547,9.51
		C163.802,55.545,162.603,55.847,161.422,55.847z"/>
	<path style="fill:#F7B239;" d="M92.173,125.084c-1.181,0-2.376-0.3-3.472-0.933l-14.354-8.278c-3.33-1.921-4.473-6.178-2.553-9.508
		c1.921-3.331,6.181-4.473,9.508-2.553l14.354,8.278c3.33,1.921,4.473,6.178,2.553,9.508
		C96.921,123.833,94.579,125.084,92.173,125.084z"/>
	<path style="fill:#F7B239;" d="M434.181,322.542c-1.181,0-2.377-0.301-3.473-0.934l-14.341-8.278
		c-3.33-1.923-4.471-6.179-2.549-9.51c1.923-3.329,6.178-4.472,9.51-2.549l14.341,8.278c3.33,1.923,4.471,6.179,2.549,9.51
		C438.928,321.293,436.587,322.542,434.181,322.542z"/>
</g>
<path style="fill:#999999;" d="M280.651,483.191v11.392c0,9.62-7.797,17.417-17.417,17.417h-14.455
	c-9.62,0-17.417-7.797-17.417-17.417v-11.392c4.455,1.038,9.101,1.595,13.885,1.595h21.505
	C271.537,484.786,276.183,484.229,280.651,483.191z"/>
<path style="fill:#B3B3B3;" d="M327.522,406.714v21.733c0,0.646-0.013,1.278-0.025,1.911c-0.101,3.24-0.456,6.405-1.051,9.493
	c-0.62,3.266-1.506,6.443-2.633,9.493c-6.949,19.024-23.151,33.593-43.162,38.277c-4.468,1.038-9.113,1.595-13.898,1.595h-21.505
	c-4.785,0-9.43-0.557-13.885-1.595c-20.012-4.683-36.213-19.252-43.162-38.277c-1.127-3.051-2.013-6.228-2.633-9.493
	c-0.595-3.088-0.949-6.253-1.051-9.493c-0.013-0.633-0.025-1.266-0.025-1.911v-21.733H327.522z"/>
<path style="fill:#999999;" d="M327.496,430.358c-0.101,3.24-0.456,6.405-1.051,9.493c-0.62,3.266-1.506,6.443-2.633,9.493H188.2
	c-1.127-3.051-2.013-6.228-2.633-9.493c-0.595-3.088-0.949-6.253-1.051-9.493H327.496z"/>
<g>
</g>
<g>
</g>
<g>
</g>
<g>
</g>
<g>
</g>
<g>
</g>
<g>
</g>
<g>
</g>
<g>
</g>
<g>
</g>
<g>
</g>
<g>
</g>
<g>
</g>
<g>
</g>
<g>
</g>
</svg>
