<svg version="1.1" id="Layer_1" xmlns="http://www.w3.org/2000/svg" xmlns:xlink="http://www.w3.org/1999/xlink" x="0px" y="0px" width="100px" height="50px" viewBox="301 15.2 153 50" enable-background="new 301 15.2 153 50" xml:space="preserve">
<path fill="#0E0E0E" d="M309.8,22v7.5h7.9V52h9.4V29.5h8V22H309.8z M336.1,21.6c0,1.3,0.5,2.4,1.5,3.3c1,0.9,2.3,1.3,3.9,1.3
    c1.6,0,2.9-0.4,3.9-1.3c1-0.9,1.5-2,1.5-3.3c0-1.4-0.5-2.5-1.5-3.4c-1-0.9-2.3-1.3-3.9-1.3c-1.6,0-2.9,0.4-3.9,1.3
    C336.6,19.1,336.1,20.3,336.1,21.6z M336.8,28.1V52h9.4V28.1H336.8L336.8,28.1z M365.5,27.8c-1.6,0-2.9,0.3-4,1
    c-1.1,0.6-2,1.5-2.6,2.6v-3.3h-9.4v35.3h9.4V48.7c0.6,1.1,1.4,2,2.6,2.6c1.1,0.6,2.4,1,4,1c1.9,0,3.5-0.5,5-1.5
    c1.5-1,2.7-2.4,3.5-4.2c0.9-1.8,1.3-4,1.3-6.5c0-2.5-0.4-4.7-1.3-6.5c-0.9-1.8-2-3.3-3.5-4.2C369,28.3,367.4,27.8,365.5,27.8
    L365.5,27.8z M362.4,36c1,0,1.8,0.4,2.5,1.1c0.6,0.7,1,1.7,1,3c0,1.3-0.3,2.3-1,3c-0.6,0.7-1.5,1.1-2.5,1.1s-1.8-0.4-2.5-1.1
    c-0.6-0.7-1-1.7-1-3c0-1.3,0.3-2.3,1-3C360.5,36.4,361.4,36,362.4,36z M393.4,27.8c-1.6,0-2.9,0.3-4,1c-1.1,0.6-2,1.5-2.6,2.6v-3.3
    h-9.4v35.3h9.4V48.7c0.6,1.1,1.4,2,2.6,2.6c1.1,0.6,2.4,1,4,1c1.9,0,3.5-0.5,5-1.5c1.5-1,2.7-2.4,3.5-4.2c0.9-1.8,1.3-4,1.3-6.5
    c0-2.5-0.4-4.7-1.3-6.5c-0.9-1.8-2-3.3-3.5-4.2C397,28.3,395.3,27.8,393.4,27.8L393.4,27.8z M390.3,36c1,0,1.8,0.4,2.5,1.1
    c0.6,0.7,1,1.7,1,3c0,1.3-0.3,2.3-1,3c-0.6,0.7-1.5,1.1-2.5,1.1s-1.8-0.4-2.5-1.1c-0.6-0.7-1-1.7-1-3c0-1.3,0.3-2.3,1-3
    C388.5,36.4,389.3,36,390.3,36z M405.4,20.7V52h9.4V20.7H405.4z M415.7,28.1l9.9,22.7l-6,12.6h10.3l15.3-35.3h-10.4l-4.2,12.1
    l-4.5-12.1L415.7,28.1L415.7,28.1z"></path>
<ellipse fill="#2BD283" cx="345" cy="21.5" rx="5.6" ry="4.8"></ellipse>
</svg>