<?xml version="1.0" encoding="utf-8"?>
<!-- Generator: Adobe Illustrator 24.3.0, SVG Export Plug-In . SVG Version: 6.00 Build 0)  -->
<svg version="1.1" id="Layer_1" xmlns="http://www.w3.org/2000/svg" xmlns:xlink="http://www.w3.org/1999/xlink" x="0px" y="0px"
	 viewBox="0 0 512 512" style="enable-background:new 0 0 512 512;" xml:space="preserve">
<style type="text/css">
	.st0{fill:#F7B239;}
	.st1{fill:#CCCCCC;}
	.st2{fill:#2BA5F7;}
	.st3{fill:#2197D8;}
	.st4{fill:#F95428;}
	.st5{fill:#FFFFFF;}
	.st6{fill:#999999;}
	.st7{fill:#B3B3B3;}
</style>
<path class="st0" d="M407.6,210.7c0,41-16.3,78.3-42.8,105.6c-23.6,24.3-37.2,56.6-37.2,90.5l-93,32.5l-50-32.5
	c0-33.9-13.7-66.2-37.3-90.6c-26-26.8-42.2-63.2-42.7-103.4c-1.1-83.2,66.1-152.4,149.4-153.6C338.5,57.9,407.6,126.2,407.6,210.7z"
	/>
<path class="st1" d="M278.6,169.8l20,29.8h0c-13.6,5.9-28.1,52.1-42.6,52.1c-14.5,0-29-46.2-42.6-52.1l20-29.8
	c6.5,4.4,14.2-9.9,22.6-9.9C264.4,159.9,272.2,174.1,278.6,169.8z"/>
<g>
	<path class="st2" d="M298.6,200.3v220.9H256v-212c2.4,0,4.8-0.1,7.2-0.2C275.3,208.1,287.3,205.2,298.6,200.3L298.6,200.3
		L298.6,200.3L298.6,200.3z"/>
	<path class="st2" d="M256,209.1v212h-42.6V200.3c11.3,4.9,23.3,7.8,35.4,8.6C251.2,209,253.6,209.1,256,209.1z"/>
</g>
<path class="st3" d="M263.2,208.9v212.3h-14.5V208.9c2.4,0.2,4.8,0.2,7.2,0.2C258.4,209.1,260.8,209,263.2,208.9z"/>
<path class="st4" d="M256,136.7l22.6,33.8c-6.5,4.4-14.2,6.9-22.6,6.9c-8.4,0-16.2-2.5-22.6-6.9L256,136.7z"/>
<g>
	<path class="st5" d="M375.9,220.2c-5.2,0-9.5-4.2-9.5-9.5c0-49-32.9-92.7-80.1-106.2c-5-1.4-8-6.7-6.5-11.7c1.4-5,6.7-8,11.7-6.5
		c55.3,15.8,93.9,67,93.9,124.4C385.4,215.9,381.2,220.2,375.9,220.2z"/>
	<path class="st5" d="M262.6,100.4c-0.2,0-0.3,0-0.5,0c-2.1-0.1-4.3-0.2-6.3-0.2c-0.5,0-0.9,0-1.4,0c-5.2,0.1-9.6-4-9.7-9.3
		c-0.1-5.2,4-9.6,9.3-9.7c2.9-0.1,5.9,0,9,0.2c5.2,0.3,9.3,4.7,9,10C271.8,96.5,267.6,100.4,262.6,100.4z"/>
</g>
<g>
	<path class="st0" d="M461.7,219.7h-16.6c-3.8,0-7-3.1-7-7c0-3.8,3.1-7,7-7h16.6c3.8,0,7,3.1,7,7
		C468.7,216.6,465.6,219.7,461.7,219.7z"/>
	<path class="st0" d="M66.8,219.7H50.3c-3.8,0-7-3.1-7-7c0-3.8,3.1-7,7-7h16.6c3.8,0,7,3.1,7,7C73.8,216.6,70.7,219.7,66.8,219.7z"
		/>
	<path class="st0" d="M419.8,125.1c-2.4,0-4.8-1.3-6-3.5c-1.9-3.3-0.8-7.6,2.6-9.5l14.4-8.3c3.3-1.9,7.6-0.8,9.5,2.6
		c1.9,3.3,0.8,7.6-2.6,9.5l-14.4,8.3C422.2,124.8,421,125.1,419.8,125.1z"/>
	<path class="st0" d="M77.8,322.5c-2.4,0-4.7-1.2-6-3.5c-1.9-3.3-0.8-7.6,2.5-9.5l14.3-8.3c3.3-1.9,7.6-0.8,9.5,2.5s0.8,7.6-2.5,9.5
		l-14.3,8.3C80.2,322.2,79,322.5,77.8,322.5z"/>
	<path class="st0" d="M350.6,55.8c-1.2,0-2.4-0.3-3.5-0.9c-3.3-1.9-4.5-6.2-2.5-9.5l8.3-14.4c1.9-3.3,6.2-4.5,9.5-2.5
		c3.3,1.9,4.5,6.2,2.5,9.5l-8.3,14.4C355.3,54.6,353,55.8,350.6,55.8z"/>
	<path class="st0" d="M256,30.5c-3.8,0-7-3.1-7-7V7c0-3.8,3.1-7,7-7s7,3.1,7,7v16.6C263,27.4,259.9,30.5,256,30.5z"/>
	<path class="st0" d="M161.4,55.8c-2.4,0-4.7-1.2-6-3.5L147.1,38c-1.9-3.3-0.8-7.6,2.5-9.5s7.6-0.8,9.5,2.5l8.3,14.4
		c1.9,3.3,0.8,7.6-2.5,9.5C163.8,55.5,162.6,55.8,161.4,55.8z"/>
	<path class="st0" d="M92.2,125.1c-1.2,0-2.4-0.3-3.5-0.9l-14.4-8.3c-3.3-1.9-4.5-6.2-2.6-9.5c1.9-3.3,6.2-4.5,9.5-2.6l14.4,8.3
		c3.3,1.9,4.5,6.2,2.6,9.5C96.9,123.8,94.6,125.1,92.2,125.1z"/>
	<path class="st0" d="M434.2,322.5c-1.2,0-2.4-0.3-3.5-0.9l-14.3-8.3c-3.3-1.9-4.5-6.2-2.5-9.5c1.9-3.3,6.2-4.5,9.5-2.5l14.3,8.3
		c3.3,1.9,4.5,6.2,2.5,9.5C438.9,321.3,436.6,322.5,434.2,322.5z"/>
</g>
<path class="st6" d="M280.7,483.2v11.4c0,9.6-7.8,17.4-17.4,17.4h-14.5c-9.6,0-17.4-7.8-17.4-17.4v-11.4c4.5,1,9.1,1.6,13.9,1.6
	h21.5C271.5,484.8,276.2,484.2,280.7,483.2z"/>
<path class="st7" d="M327.5,406.7v21.7c0,0.6,0,1.3,0,1.9c-0.1,3.2-0.5,6.4-1.1,9.5c-0.6,3.3-1.5,6.4-2.6,9.5
	c-6.9,19-23.2,33.6-43.2,38.3c-4.5,1-9.1,1.6-13.9,1.6h-21.5c-4.8,0-9.4-0.6-13.9-1.6c-20-4.7-36.2-19.3-43.2-38.3
	c-1.1-3.1-2-6.2-2.6-9.5c-0.6-3.1-0.9-6.3-1.1-9.5c0-0.6,0-1.3,0-1.9v-21.7H327.5z"/>
<path class="st6" d="M327.5,430.4c-0.1,3.2-0.5,6.4-1.1,9.5c-0.6,3.3-1.5,6.4-2.6,9.5H188.2c-1.1-3.1-2-6.2-2.6-9.5
	c-0.6-3.1-0.9-6.3-1.1-9.5H327.5z"/>
</svg>
